<svg width="42" height="42" viewBox="0 0 42 42" fill="none" xmlns="http://www.w3.org/2000/svg">
<g clip-path="url(#clip0_28_122)">
<path d="M21 3.5C30.6495 3.5 38.5 11.3505 38.5 21C38.5 30.6495 30.6495 38.5 21 38.5C11.3505 38.5 3.5 30.6495 3.5 21C3.5 11.3505 11.3505 3.5 21 3.5ZM21 0C9.40275 0 0 9.40275 0 21C0 32.5972 9.40275 42 21 42C32.5972 42 42 32.5972 42 21C42 9.40275 32.5972 0 21 0ZM17.5 14C17.5 14.9747 16.7178 15.764 15.75 15.764C14.7823 15.764 14 14.9765 14 14C14 13.0253 14.7823 12.236 15.75 12.236C16.7178 12.236 17.5 13.027 17.5 14ZM17.5 17.5H14V28H17.5V17.5ZM22.75 17.5H19.25V28H22.75V22.9932C22.75 19.9797 26.2535 19.7015 26.2535 22.9932V28H29.75V22.1217C29.75 16.3748 24.276 16.5848 22.75 19.4128V17.5Z" fill="black"/>
</g>
<defs>
<clipPath id="clip0_28_122">
<rect width="42" height="42" fill="white"/>
</clipPath>
</defs>
</svg>
